<svg width="47" height="46" viewBox="0 0 47 46" fill="none" xmlns="http://www.w3.org/2000/svg">
<path d="M38.4615 45.9795H8.72336C7.65227 45.9805 6.59151 45.7694 5.60176 45.3583C4.61202 44.9473 3.71272 44.3442 2.95535 43.5838C2.19798 42.8233 1.5974 41.9204 1.18798 40.9266C0.778557 39.9328 0.568333 38.8678 0.56934 37.7923V9.08952C0.568333 8.01408 0.778557 6.949 1.18798 5.95523C1.5974 4.96146 2.19798 4.05851 2.95535 3.29806C3.71272 2.53761 4.61202 1.93459 5.60176 1.5235C6.59151 1.11242 7.65227 0.901337 8.72336 0.902347H38.4615C39.5326 0.901337 40.5934 1.11242 41.5831 1.5235C42.5729 1.93459 43.4722 2.53761 44.2295 3.29806C44.9869 4.05851 45.5875 4.96146 45.9969 5.95523C46.4063 6.949 46.6166 8.01408 46.6156 9.08952V37.7923C46.6166 38.8678 46.4063 39.9328 45.9969 40.9266C45.5875 41.9204 44.9869 42.8233 44.2295 43.5838C43.4722 44.3442 42.5729 44.9473 41.5831 45.3583C40.5934 45.7694 39.5326 45.9805 38.4615 45.9795Z" fill="#FF26BE"/>
<path d="M37.732 44.0533H9.45247C7.60586 44.0501 5.83584 43.312 4.5304 42.0006C3.22496 40.6892 2.49059 38.9117 2.48828 37.0575V9.82258C2.49146 7.96903 3.22621 6.19232 4.53156 4.88166C5.83691 3.571 7.60643 2.83327 9.45247 2.83008H37.7135C38.6281 2.82993 39.5337 3.0107 40.3787 3.36206C41.2237 3.71341 41.9915 4.22847 42.6382 4.87781C43.2849 5.52715 43.7979 6.29806 44.1478 7.1465C44.4978 7.99493 44.6778 8.90427 44.6777 9.82258V37.0433C44.6815 37.962 44.5048 38.8724 44.1576 39.7223C43.8104 40.5723 43.2995 41.3451 42.6542 41.9964C42.009 42.6477 41.2421 43.1648 40.3974 43.518C39.5528 43.8711 38.647 44.0534 37.732 44.0544V44.0533Z" fill="#2E001F"/>
<path d="M18.7741 21.9953L24.1464 32.359C24.2426 32.5126 24.1847 32.6683 24.0306 32.6683H20.6916C20.6061 32.6794 20.5193 32.6606 20.4458 32.6151C20.3724 32.5695 20.3169 32.5 20.2885 32.4182C19.0604 29.8752 17.8127 27.3323 16.5278 24.5974H16.4895C15.3379 27.1788 14.0716 29.8961 12.8446 32.4391C12.8138 32.5045 12.7646 32.5595 12.7031 32.5973C12.6416 32.6351 12.5704 32.6541 12.4983 32.6518H9.33632C9.14512 32.6518 9.12435 32.4983 9.22706 32.382L14.4835 22.3255L9.39971 12.1538C9.37664 12.1322 9.36064 12.1042 9.35383 12.0733C9.34702 12.0425 9.34971 12.0102 9.36156 11.9809C9.37342 11.9517 9.39389 11.9267 9.42021 11.9094C9.44654 11.892 9.4775 11.8832 9.50897 11.8839H12.8097C12.8831 11.8701 12.9591 11.8841 13.0227 11.9235C13.0864 11.9628 13.1331 12.0246 13.1539 12.0967C14.3623 14.6396 15.5903 17.2605 16.7419 19.8209H16.7802C17.8924 17.278 19.1216 14.6397 20.3114 12.1154C20.4076 11.9618 20.4644 11.8652 20.6578 11.8652H23.7465C23.8995 11.8652 23.9585 11.9816 23.8624 12.1351L18.7741 21.9953ZM25.0883 25.135C25.0883 20.647 28.0623 17.1409 32.7812 17.1409C33.1145 17.1339 33.448 17.1467 33.7798 17.1793V12.0748C33.7798 12.0239 33.8 11.975 33.8358 11.939C33.8717 11.903 33.9203 11.8828 33.971 11.8828H37.003C37.1559 11.8828 37.1942 11.9398 37.1942 12.0364V29.7217C37.1831 30.3525 37.2152 30.9833 37.2903 31.6096C37.2903 31.7259 37.251 31.7633 37.1374 31.8225C35.6017 32.5577 33.9219 32.9392 32.2207 32.9393C28.0568 32.9557 25.0817 30.3766 25.0839 25.135H25.0883ZM33.7776 20.2049C33.4231 20.068 33.0451 20.0028 32.6654 20.0129C30.2475 20.0129 28.5605 21.8779 28.5605 24.9836C28.5605 28.5292 30.2879 29.9543 32.4556 29.9543C32.9064 29.9673 33.3556 29.8951 33.7798 29.7414V20.2027L33.7776 20.2049Z" fill="#FFD9F2"/>
</svg>
