<svg width="49" height="48" viewBox="0 0 49 48" fill="none" xmlns="http://www.w3.org/2000/svg">
<path d="M2.00439 2.01514H46.1561V45.1286H2.00439V2.01514Z" fill="url(#paint0_radial_90_432)"/>
<path d="M2.00709 2.01524H46.1555V45.1287H2.00709V2.01524ZM0 47.1483H48.1615V0H0V47.1483ZM34.0747 22.7273C34.5699 22.7554 35.0666 22.7418 35.5595 22.6867C35.5595 22.5451 35.5999 22.4453 35.5999 22.3444C35.5999 21.2561 35.0777 19.242 32.9908 19.242C31.0646 19.242 30.2419 20.9347 30.0408 22.7273H34.0747ZM30.0015 25.4874C30.0419 28.2081 31.3257 30.0412 34.3719 30.0412C35.4942 30.0703 36.6097 29.8574 37.6431 29.417C37.784 29.3566 37.8835 29.3764 37.8835 29.5585V32.0817C37.8907 32.1609 37.8757 32.2406 37.8401 32.3118C37.8046 32.3829 37.75 32.4427 37.6824 32.4843C36.4136 33.0455 35.0339 33.3082 33.6486 33.2522C28.3506 33.2522 26.3643 29.3237 26.3643 24.951C26.3643 20.1953 28.8128 16.3074 33.1274 16.3074C37.4978 16.3074 39.0274 19.9945 39.0274 22.9993C39.0488 23.715 38.9949 24.4309 38.8668 25.1353C38.8589 25.2021 38.8289 25.2642 38.7815 25.3118C38.7341 25.3594 38.6722 25.3895 38.6057 25.3974C37.4923 25.509 36.3734 25.5559 35.2547 25.5379H30.0004L30.0015 25.4874ZM19.2449 23.4327C18.6833 21.1958 17.3187 16.3206 16.8172 13.9631H16.7768C16.355 16.3206 15.2471 20.3094 14.4288 23.4327H19.2449ZM13.6061 26.6963L12.0185 32.7224C11.9781 32.8836 11.918 32.9418 11.717 32.9418H8.76696C8.56593 32.9418 8.52659 32.8814 8.56593 32.6401L14.2649 12.6324C14.4058 12.0933 14.4735 11.5375 14.4659 10.9802C14.4659 10.8387 14.526 10.7784 14.6265 10.7784H18.8407C18.9816 10.7784 19.0417 10.819 19.081 10.9802L25.4629 32.6807C25.5033 32.8419 25.4629 32.9428 25.3023 32.9428H21.9939C21.9277 32.9523 21.8604 32.9369 21.8048 32.8997C21.7491 32.8625 21.7091 32.806 21.6923 32.741L20.0469 26.6963H13.6006H13.6061Z" fill="#D8A1FF"/>
<defs>
<radialGradient id="paint0_radial_90_432" cx="0" cy="0" r="1" gradientUnits="userSpaceOnUse" gradientTransform="translate(15.3956 5.91392) scale(33.5514 32.5941)">
<stop stop-color="#442F55" stop-opacity="0.98"/>
<stop offset="1" stop-color="#12002C"/>
</radialGradient>
</defs>
</svg>
