<svg width="31" height="47" viewBox="0 0 31 47" fill="none" xmlns="http://www.w3.org/2000/svg">
<path d="M7.65088 46.0929C9.67885 46.0914 11.6233 45.2819 13.0573 43.842C14.4913 42.4022 15.2976 40.4498 15.299 38.4136V30.7344H7.65088C5.62174 30.7344 3.67571 31.5437 2.24089 32.9844C0.806073 34.425 0 36.379 0 38.4164C0 40.4538 0.806073 42.4077 2.24089 43.8483C3.67571 45.289 5.62174 46.0983 7.65088 46.0983V46.0929Z" fill="#0ACF83"/>
<path d="M0.00292969 23.043C0.00437669 21.0068 0.810626 19.0544 2.24462 17.6146C3.67861 16.1747 5.62311 15.3652 7.65108 15.3638H15.2992V30.7277H7.65108C5.62216 30.7263 3.67684 29.916 2.24269 28.475C0.80854 27.034 0.00292917 25.0802 0.00292969 23.043H0.00292969Z" fill="#A259FF"/>
<path d="M0.00341797 7.67924C0.00486497 5.64303 0.811114 3.69062 2.24511 2.2508C3.6791 0.81098 5.6236 0.00145288 7.65157 0H15.2997V15.364H7.65157C5.62265 15.3625 3.67733 14.5522 2.24318 13.1112C0.809028 11.6702 0.00341745 9.71641 0.00341797 7.67924H0.00341797Z" fill="#F24E1E"/>
<path d="M15.3042 0H22.9523C23.9571 -1.50325e-08 24.952 0.1987 25.8802 0.584756C26.8085 0.970812 27.6519 1.53666 28.3623 2.25C29.0728 2.96334 29.6363 3.81019 30.0208 4.74222C30.4053 5.67424 30.6032 6.67317 30.6032 7.68198C30.6032 8.6908 30.4053 9.68973 30.0208 10.6218C29.6363 11.5538 29.0728 12.4006 28.3623 13.114C27.6519 13.8273 26.8085 14.3932 25.8802 14.7792C24.952 15.1653 23.9571 15.364 22.9523 15.364H15.3042V0Z" fill="#FF7262"/>
<path d="M30.6059 23.0435C30.6059 24.5623 30.1573 26.047 29.3169 27.3099C28.4765 28.5727 27.2821 29.557 25.8845 30.1382C24.487 30.7194 22.9492 30.8715 21.4656 30.5752C19.982 30.2789 18.6193 29.5475 17.5497 28.4735C16.4801 27.3996 15.7516 26.0313 15.4565 24.5416C15.1614 23.052 15.3129 21.508 15.8918 20.1048C16.4706 18.7016 17.4509 17.5022 18.7086 16.6584C19.9664 15.8146 21.4451 15.3643 22.9577 15.3643C24.9857 15.3657 26.9302 16.1752 28.3642 17.6151C29.7982 19.0549 30.6044 21.0073 30.6059 23.0435Z" fill="#1ABCFE"/>
</svg>
