<svg width="48" height="47" viewBox="0 0 48 47" fill="none" xmlns="http://www.w3.org/2000/svg">
<path d="M2.00391 2.00684H45.9556V44.9393H2.00391V2.00684Z" fill="url(#paint0_radial_90_474)"/>
<path d="M1.99835 2.00648H45.9555V44.9389H1.99835V2.00648ZM0 46.9443H47.9539V0H0V46.9443ZM32.3287 19.2573C30.7499 19.2573 30.2113 20.0593 30.2113 20.7219C30.2113 21.4437 30.5707 21.9462 32.6893 23.0487C35.8261 24.5736 36.8051 26.0381 36.8051 28.185C36.8051 31.3949 34.3675 33.1217 31.0712 33.1217C29.6562 33.1735 28.2501 32.8775 26.975 32.2594C26.8352 32.1991 26.8155 32.0992 26.8155 31.938V28.9891C26.8155 28.7884 26.9149 28.728 27.0548 28.829C28.2528 29.6008 29.6467 30.0102 31.0701 30.0083C32.6489 30.0083 33.3077 29.3501 33.3077 28.4439C33.3077 27.7221 32.8477 27.0792 30.8297 26.037C27.9889 24.6723 26.8133 23.2889 26.8133 20.9819C26.8133 18.394 28.8313 16.2471 32.3276 16.2471C33.545 16.1944 34.7606 16.3853 35.9037 16.8088C35.9699 16.8514 36.0235 16.9112 36.0587 16.9819C36.0939 17.0526 36.1094 17.1315 36.1036 17.2103V19.9583C36.1036 20.1185 36.0042 20.2194 35.8043 20.1591C34.7481 19.549 33.5471 19.2374 32.3287 19.2573ZM15.1455 21.6467C15.6055 21.6873 15.965 21.6873 16.7637 21.6873C19.1018 21.6873 21.299 20.8645 21.299 17.6754C21.299 15.1281 19.7202 13.8435 17.063 13.8435C16.2643 13.8435 15.505 13.8841 15.1444 13.9038L15.1455 21.6467ZM11.5891 10.9934C11.5891 10.853 11.8688 10.7531 12.0262 10.7531C13.3045 10.6928 15.2034 10.6533 17.181 10.6533C22.7161 10.6533 24.874 13.7031 24.874 17.5942C24.874 22.69 21.1974 24.8764 16.6795 24.8764C15.9202 24.8764 15.6601 24.8358 15.1215 24.8358V32.5391C15.1215 32.6993 15.0614 32.7794 14.8822 32.7794H11.8229C11.6634 32.7794 11.5837 32.7191 11.5837 32.5391V10.9934H11.5891Z" fill="#31C5F0"/>
<defs>
<radialGradient id="paint0_radial_90_474" cx="0" cy="0" r="1" gradientUnits="userSpaceOnUse" gradientTransform="translate(16.0332 11.1078) scale(33.3995 32.4573)">
<stop stop-color="#34364E" stop-opacity="0.98"/>
<stop offset="1" stop-color="#0C0824"/>
</radialGradient>
</defs>
</svg>
